<svg data-v-0dd9719b="" version="1.0" xmlns="http://www.w3.org/2000/svg" xmlns:xlink="http://www.w3.org/1999/xlink" width="100%" height="100%" viewBox="0 0 340.000000 250.000000" preserveAspectRatio="xMidYMid meet" color-interpolation-filters="sRGB" style="margin: auto;"> <rect data-v-0dd9719b="" x="0" y="0" width="100%" height="100%" fill="#fff" fill-opacity="1" class="background"></rect> <rect data-v-0dd9719b="" x="0" y="0" width="100%" height="100%" fill="url(#watermark)" fill-opacity="1" class="watermarklayer"></rect> <g data-v-0dd9719b="" fill="#42bdd8" class="icon-text-wrapper icon-svg-group iconsvg" transform="translate(50.54999542236328,91.06834030151367)"><g class="iconsvg-imagesvg" transform="translate(0,0)"><g><rect fill="#42bdd8" fill-opacity="0" stroke-width="2" x="0" y="0" width="60" height="67.86332326694038" class="image-rect"></rect> <svg x="0" y="0" width="60" height="67.86332326694038" filtersec="colorsb234647041" class="image-svg-svg primary" style="overflow: visible;"><svg xmlns="http://www.w3.org/2000/svg" viewBox="0 0 35.099998474121094 39.70000076293945"><g><g><g><path d="M28.5 24.9l3.5-.5v8.3l-28.2 7v-6.8l7.3-1.6a13.1 13.1 0 0 0 6.8 1.6c7.3 0 10.1-3.9 10.6-8zm-.3-16l3.8.5V4.9l-6.4-1.1a2.3 2.3 0 0 1 .7.7 7.9 7.9 0 0 1 1.9 4.4zM6.8 22.2h2v-7.5a7.5 7.5 0 0 1-1.5-4.6c0-4.2 2.9-7.1 6.6-8.4L3.8 0v22.7l3-.2z" fill="#42bdd8"></path><path fill="#e85298" d="M35.1 9.8L32 9.4v15l3.1-.6v-14z"></path><path d="M12.3 22.2H8.8v-7.5c1.7 2.4 4.6 3.6 6 4.2 4.7 2 6 2.5 6 4.5a3 3 0 0 1-3 3c-1 0-3.2-.7-3.2-4.2h-2.3zM28.2 8.9a9.9 9.9 0 0 1 .2 1.7h-7.8c-.2-1.1-.4-3-2.8-3a2.5 2.5 0 0 0-2.7 2.4c0 1.8.8 2.2 6.3 4.7s7.2 5.2 7.2 8.8a6.1 6.1 0 0 1-.1 1.4l3.5-.5v-15z" fill="#694584"></path><path fill="#dae000" d="M0 23v10.8l3.8-.9V22.7L0 23z"></path><path d="M6.8 23.2v-.7l-3 .2v10.2l7.3-1.6a9.3 9.3 0 0 1-4.3-8.1z" fill="#55a63c"></path></g></g></g></svg></svg> <!----></g></g> <g transform="translate(67,5.865407943725586)"><g data-gra="path-name" fill-rule="" class="tp-name iconsvg-namesvg" transform="translate(0,0)"><g transform="scale(1)"><g><path d="M4.54-33.16L40-33.16 40 2.61 4.54 2.61 4.54-33.16ZM10.08-2.88L34.42-2.88 34.42-8.69 30.29-8.69Q27-8.69 25.43-9.97 23.85-11.25 23.85-14.71L23.85-14.71 23.85-27.72 20.02-27.72 20.02-22.99Q20.02-19.75 19.66-17.48 19.3-15.21 18.47-13.39 17.64-11.56 16.25-9.99 14.85-8.41 12.78-6.57L12.78-6.57 10.08-9.04 10.08-2.88ZM14.63-27.72L10.08-27.72 10.08-11.47Q11.56-12.73 12.44-13.86 13.32-14.98 13.81-16.31 14.31-17.64 14.47-19.26 14.63-20.88 14.63-23.18L14.63-23.18 14.63-27.72ZM34.42-14.22L34.42-27.72 29.2-27.72 29.2-16.83Q29.2-16.02 29.29-15.5 29.38-14.98 29.65-14.71 29.92-14.45 30.42-14.33 30.91-14.22 31.77-14.22L31.77-14.22 34.42-14.22ZM83.16-34.92L83.16 3.69 77.31 3.69 77.31-35.14 83.16-34.92ZM50.8 4.86L45.36 1.67Q46.76-0.14 47.84-1.67 48.91-3.19 49.68-4.68 50.45-6.17 50.94-7.79 51.44-9.4 51.73-11.38 52.02-13.37 52.13-15.86 52.25-18.36 52.25-21.64L52.25-21.64 52.25-35.1 58.05-34.88 58.05-21.69Q58.05-18 57.91-15.12 57.78-12.24 57.49-9.97 57.2-7.69 56.66-5.83 56.12-3.96 55.33-2.25 54.54-0.54 53.41 1.17 52.29 2.88 50.8 4.86L50.8 4.86ZM70.52-33.48L70.52 1.67 64.75 1.67 64.75-33.7 70.52-33.48ZM130.32-12.38L116.06-12.38Q115.34-11.03 114.46-9.54 113.58-8.05 112.72-6.73 111.87-5.4 111.11-4.34 110.34-3.28 109.8-2.75L109.8-2.75Q110.88-2.79 112.21-2.88 113.53-2.97 114.95-3.06 116.37-3.15 117.81-3.26 119.25-3.38 120.56-3.46L120.56-3.46Q119.66-4.95 118.84-6.3 118.03-7.65 117.27-8.78L117.27-8.78 121.55-11.16Q122.49-9.9 123.66-8.21 124.83-6.52 126-4.72 127.17-2.92 128.2-1.24 129.24 0.45 129.91 1.67L129.91 1.67 125.19 5.13Q124.83 4.37 124.36 3.51 123.88 2.65 123.39 1.71L123.39 1.71Q121.72 1.75 119.66 1.89 117.59 2.02 115.27 2.21 112.95 2.38 110.47 2.59 108 2.79 105.53 3.01L105.53 3.01Q104.98 3.06 104.51 3.1 104.04 3.15 103.55 3.24L103.55 3.24 101.84-2.11Q102.83-2.56 103.23-2.88 103.64-3.19 104-3.6L104-3.6Q104.36-3.96 105.01-4.84 105.66-5.71 106.42-6.93 107.19-8.14 108.05-9.56 108.9-10.98 109.71-12.38L109.71-12.38 102.15-12.38 102.15-17.95 112.59-17.95 112.59-24.12 104.9-24.12 104.9-29.74 112.59-29.74 112.59-35.73 118.48-35.55 118.48-29.74 127.89-29.74 127.89-24.12 118.48-24.12 118.48-17.95 130.32-17.95 130.32-12.38ZM103.95-29.47L101.12-24.75Q100.39-25.38 99.34-26.23 98.28-27.09 97.13-27.95 95.98-28.8 94.91-29.56 93.83-30.33 93.06-30.82L93.06-30.82 96.12-35.23Q96.89-34.74 97.94-34.02 99-33.3 100.13-32.49 101.25-31.68 102.26-30.87 103.28-30.06 103.95-29.47L103.95-29.47ZM101.84-19.13L98.95-14.26Q98.14-15.03 96.97-16 95.81-16.96 94.59-17.93 93.38-18.9 92.23-19.73 91.08-20.56 90.27-21.11L90.27-21.11 93.38-25.47Q94.19-24.93 95.31-24.16 96.44-23.4 97.61-22.52 98.78-21.64 99.88-20.77 100.98-19.89 101.84-19.13L101.84-19.13ZM100.13-11.65L102.56-10.8Q101.3-6.79 99.83-2.86 98.37 1.08 96.66 4.37L96.66 4.37 91.13 2.38Q93.02-1.26 94.52-5.06 96.03-8.87 97.16-12.78L97.16-12.78 100.13-11.65ZM137.25-21.24L135.72-19.57 133.47-24.39Q135.81-27.09 137.88-29.83 139.95-32.58 141.3-36.05L141.3-36.05 146.38-34.92Q146.16-34.38 145.89-33.84 145.62-33.3 145.35-32.76L145.35-32.76 151.69-32.76 151.69-28.21 149.31-25.15 152.46-25.15 152.46-5.4 137.25-5.4 137.25-21.24ZM174.01-31.95L174.01-26.73 153.45-26.73 153.45-31.95 160.88-31.95 159.97-35.59 165.38-35.87 166.19-31.95 174.01-31.95ZM145.8-27.95L142.47-27.95Q141.97-27.22 141.46-26.53 140.94-25.83 140.44-25.15L140.44-25.15 143.5-25.15 145.8-27.95ZM172.75-10.26L166.28-10.26 166.28 0Q166.28 1.21 166.07 2 165.87 2.79 165.35 3.26 164.84 3.73 164.03 3.96 163.22 4.18 162 4.32L162 4.32 159.34 4.63 157.77-0.49 159.3-0.77Q160.43-0.99 160.72-1.33 161.01-1.67 161.01-2.43L161.01-2.43 161.01-10.26 154.17-10.26 154.17-24.48 172.75-24.48 172.75-10.26ZM142.92-20.75L141.34-20.75 141.34-17.46 142.92-17.46 142.92-20.75ZM148.28-17.46L148.28-20.75 146.79-20.75 146.79-17.46 148.28-17.46ZM159.12-19.35L159.12-15.34 167.53-15.34 167.53-19.35 159.12-19.35ZM141.34-12.91L141.34-9.67 142.92-9.67 142.92-12.91 141.34-12.91ZM146.79-9.67L148.28-9.67 148.28-12.91 146.79-12.91 146.79-9.67ZM166.59-6.97L170.96-9.49Q171.54-8.59 172.31-7.4 173.07-6.21 173.84-4.88 174.6-3.55 175.28-2.27 175.95-0.99 176.44 0.04L176.44 0.04 171.99 3.24Q171.5 2.16 170.78 0.77 170.06-0.63 169.31-2.05 168.57-3.46 167.85-4.75 167.13-6.03 166.59-6.97L166.59-6.97ZM155.88-9.4L160.2-7.11Q159.07-4.41 157.91-2.09 156.74 0.22 155.03 2.52L155.03 2.52 151.43 0.45 151.43 1.17Q150.84 1.21 149.56 1.33 148.28 1.44 146.68 1.6 145.08 1.75 143.32 1.91 141.57 2.07 139.97 2.23 138.38 2.38 137.12 2.52 135.85 2.65 135.27 2.75L135.27 2.75 134.96-2.29Q135.5-2.34 136.78-2.43 138.06-2.52 139.68-2.65 141.3-2.79 143.1-2.95 144.9-3.1 146.54-3.24 148.19-3.38 149.47-3.49 150.75-3.6 151.34-3.65L151.34-3.65 151.38-1.21Q152.69-3.1 153.81-5.13 154.94-7.15 155.88-9.4L155.88-9.4Z" transform="translate(-4.539999961853027, 36.04999923706055)"></path></g> <!----> <!----> <!----> <!----> <!----> <!----> <!----></g></g> <g data-gra="path-slogan" fill-rule="" class="tp-slogan iconsvg-slogansvg" fill="#42bdd8" transform="translate(36.869178771972656,47.18000030517578)"><!----> <!----> <g transform="scale(1, 1)"><g transform="scale(1)"><path d="M7.17-6.09L7.17-6.09L6.09-6.09Q6-7.73 3.94-7.83L3.94-7.83Q2.02-7.78 2.02-6.33L2.02-6.33Q2.02-5.39 3.05-5.25L3.05-5.25L5.48-4.69Q7.41-4.22 7.41-2.34L7.41-2.34Q7.36 0.05 4.03 0.14L4.03 0.14Q2.20 0.14 1.45-0.61L1.45-0.61Q0.52-1.31 0.56-2.77L0.56-2.77L1.69-2.77Q1.73-0.80 4.03-0.75L4.03-0.75Q6.28-0.80 6.33-2.20L6.33-2.20Q6.52-3.38 4.45-3.75L4.45-3.75L2.67-4.13Q0.84-4.64 0.84-6.19L0.84-6.19Q0.98-8.72 3.84-8.81L3.84-8.81Q7.08-8.81 7.17-6.09ZM9.05-8.58L10.22-8.58L10.22 0L9.05 0L9.05-8.58ZM19.36-6.05L19.36-6.05L18.23-6.05Q17.81-7.78 15.84-7.83L15.84-7.83Q13.13-7.69 13.03-4.36L13.03-4.36Q13.03-0.80 15.89-0.80L15.89-0.80Q17.86-0.84 18.33-3.19L18.33-3.19L19.45-3.19Q18.94 0.05 15.66 0.14L15.66 0.14Q11.91 0 11.81-4.31L11.81-4.31Q12-8.63 15.84-8.81L15.84-8.81Q18.89-8.72 19.36-6.05ZM21.98-5.06L26.48-5.06L26.48-8.58L27.66-8.58L27.66 0L26.48 0L26.48-3.98L21.98-3.98L21.98 0L20.81 0L20.81-8.58L21.98-8.58L21.98-5.06ZM35.11-3.19L35.11-8.58L36.28-8.58L36.28-3.05Q36.14 0.05 32.77 0.14L32.77 0.14Q29.63 0.05 29.48-2.86L29.48-2.86L29.48-8.58L30.66-8.58L30.66-3.19Q30.70-0.84 32.81-0.80L32.81-0.80Q35.11-0.84 35.11-3.19L35.11-3.19ZM43.73 0L42.89-2.48L39.42-2.48L38.53 0L37.36 0L40.59-8.58L41.91-8.58L45 0L43.73 0ZM41.16-7.31L39.80-3.52L42.47-3.52L41.20-7.31L41.16-7.31ZM47.44-8.58L51.75-1.64L51.75-8.58L52.88-8.58L52.88 0L51.56 0L47.20-6.94L47.16-6.94L47.16 0L46.03 0L46.03-8.58L47.44-8.58ZM63.52-3.89L59.30-3.89L59.30 0L58.13 0L58.13-8.58L64.08-8.58L64.08-7.59L59.30-7.59L59.30-4.92L63.52-4.92L63.52-3.89ZM70.92 0L70.08-2.48L66.61-2.48L65.72 0L64.55 0L67.78-8.58L69.09-8.58L72.19 0L70.92 0ZM68.34-7.31L66.98-3.52L69.66-3.52L68.39-7.31L68.34-7.31ZM72.52-1.92L72.52-2.77L73.59-2.77L73.59-2.16Q73.59-0.75 74.91-0.75L74.91-0.75Q76.27-0.75 76.27-2.25L76.27-2.25L76.27-8.58L77.44-8.58L77.44-2.30Q77.39 0.09 74.95 0.14L74.95 0.14Q72.66 0.09 72.52-1.92L72.52-1.92ZM79.41-8.58L80.58-8.58L80.58 0L79.41 0L79.41-8.58ZM83.95-8.58L88.27-1.64L88.27-8.58L89.39-8.58L89.39 0L88.08 0L83.72-6.94L83.67-6.94L83.67 0L82.55 0L82.55-8.58L83.95-8.58ZM97.59-3.61L94.97-3.61L94.97-4.59L98.72-4.59L98.72 0L97.97 0L97.69-1.08Q96.70 0.09 94.88 0.14L94.88 0.14Q93.14 0.14 92.20-0.75L92.20-0.75Q90.80-2.06 90.84-4.36L90.84-4.36Q91.17-8.63 94.92-8.81L94.92-8.81Q98.11-8.63 98.58-6L98.58-6L97.45-6Q96.98-7.78 94.88-7.83L94.88-7.83Q92.20-7.64 92.06-4.31L92.06-4.31Q92.06-0.75 94.92-0.75L94.92-0.75Q95.95-0.75 96.70-1.31L96.70-1.31Q97.64-2.06 97.59-3.61L97.59-3.61Z" transform="translate(-0.5602678571428572, 8.8125)"></path></g></g></g></g></g><defs v-gra="od"></defs></svg>